<svg
   width="80mm"
   height="80mm"
   viewBox="0 0 79.999996 79.999996"
   version="1.1"
   xmlns="http://www.w3.org/2000/svg">
  <g
     id="layer1"
     transform="matrix(1.0589543,0,0,1.0589543,-69.311836,-13.533738)">
    <circle
       style="fill:#00004b;fill-opacity:1;stroke-width:0.264583"
       cx="103.45734"
       cy="50.672985"
       r="37.300949" />
    <circle
       style="fill:#ffffff;stroke-width:0.264583"
       cx="104.86491"
       cy="51.728668"
       r="29.911135" />
    <circle
       style="fill:#00004d;fill-opacity:1;stroke-width:0.264583"
       cx="97.65107"
       cy="45.218601"
       r="30.087086" />
    <path
       style="fill:#ffff97;fill-opacity:1;stroke-width:0.264583"
       d="M 104.86493,27.447867 118.5849,48.801536 96.961084,35.511415 80.892242,55.15853 86.849772,30.486183 63.198709,21.275099 88.504483,19.316872 89.956165,-6.0230068 99.638464,17.439089 124.18671,10.989267 Z"
       transform="matrix(0.23804242,0,0,0.23804242,56.600233,44.491732)" />
    <path
       style="fill:#ffff97;fill-opacity:1;stroke-width:0.264583"
       d="M 104.86493,27.447867 118.5849,48.801536 96.961084,35.511415 80.892242,55.15853 86.849772,30.486183 63.198709,21.275099 88.504483,19.316872 89.956165,-6.0230068 99.638464,17.439089 124.18671,10.989267 Z"
       transform="matrix(0.36457906,0,0,0.36457906,66.898883,32.45626)" />
    <path
       style="fill:#ffff97;fill-opacity:1;stroke-width:0.264583"
       d="M 104.86493,27.447867 118.5849,48.801536 96.961084,35.511415 80.892242,55.15853 86.849772,30.486183 63.198709,21.275099 88.504483,19.316872 89.956165,-6.0230068 99.638464,17.439089 124.18671,10.989267 Z"
       transform="matrix(0.16880341,0,0,0.1747741,95.15459,18.173855)" />
    <path
       style="fill:#ffff97;fill-opacity:1;stroke-width:0.264583"
       d="M 104.86493,27.447867 118.5849,48.801536 96.961084,35.511415 80.892242,55.15853 86.849772,30.486183 63.198709,21.275099 88.504483,19.316872 89.956165,-6.0230068 99.638464,17.439089 124.18671,10.989267 Z"
       transform="matrix(0.12264408,0,0,0.12264408,87.295331,55.733492)" />
  </g>
</svg>
