<svg
   width="80mm"
   height="80mm"
   viewBox="0 0 80 80"
   version="1.1"
   xmlns="http://www.w3.org/2000/svg">
  <g
     id="layer1"
     transform="matrix(0.8209792,0,0,0.8209792,-49.056675,-62.359266)">
    <circle
       style="fill:#9affff;fill-opacity:1;stroke-width:0.264583"
       cx="108.52618"
       cy="124.80512"
       r="48.113277" />
    <path
       style="fill:#ffff00;fill-opacity:1;stroke-width:0.264583"
       d="m 143.25457,92.247257 -42.95682,13.565673 7.68488,44.38759 L 81.806523,113.53818 41.966174,134.56345 68.745269,98.339212 36.437699,66.945956 79.164195,81.220482 99.037368,40.793108 98.664701,85.839491 Z"
       transform="matrix(0.74876329,0,0,0.74876329,43.521114,51.12078)" />
    <path
       style="fill:#ffff00;fill-opacity:1;stroke-width:0.264583"
       d="m 134.57247,107.44093 -14.45901,26.7591 24.57936,17.91557 -29.9175,-5.48232 -9.44328,28.91258 -4.03102,-30.14737 -30.415626,-0.0466 27.426194,-13.14977 -9.354616,-28.94139 20.981338,22.02036 z"
       transform="translate(-1.8087698,-12.299635)" />
    <path
       style="fill:#ffff00;fill-opacity:1;stroke-width:0.264583"
       d="m 133.4872,148.68087 -23.47952,-14.0487 -17.069329,21.38438 6.105538,-26.67163 -25.61247,-9.62577 27.252951,-2.43528 1.23996,-27.333426 10.73771,25.166556 26.3788,-7.26723 -20.61668,17.98907 z"
       transform="translate(3.1209629,2.191496)" />
  </g>
</svg>
